# xmcd
#
# Track frame offsets:
#	150
#	19502
#	41027
#	55571
#	67734
#	85188
#	100315
#	121602
#	141085
#	154008
#	174408
#	186032
#	209793
#	225969
#	244760
#	261357
#
# Disc length: 3854 seconds
#
# Revision: 1
# Processed by: cddbd v1.5.2PL0 Copyright (c) Steve Scherf et al.
# Submitted via: audiograbber 1.83.01
#
DISCID=c90f0c10
DTITLE=Kimon and the Prophets - Roadhouse Party
DYEAR=2009
DGENRE=Blues
TTITLE0=Roadhouse Party
TTITLE1=Far Off Places
TTITLE2=Time To Move On
TTITLE3=A Letter From Oceanside
TTITLE4=You Beautiful Thing, You
TTITLE5=Dues: PAID
TTITLE6=Fire
TTITLE7=Peace, Love And Understanding
TTITLE8=Supply and Demand
TTITLE9=Rebel Rebel
TTITLE10=Blind Leading The Blind
TTITLE11=Light Up The Stairs
TTITLE12=Heroes
TTITLE13=Captured
TTITLE14=A World Away
TTITLE15=The boys Of Summer
EXTD=
EXTT0=
EXTT1=
EXTT2=
EXTT3=
EXTT4=
EXTT5=
EXTT6=
EXTT7=
EXTT8=
EXTT9=
EXTT10=
EXTT11=
EXTT12=
EXTT13=
EXTT14=
EXTT15=
PLAYORDER=
